<?xml version="1.0" encoding="UTF-8" standalone="no"?>
<svg xmlns="http://www.w3.org/2000/svg" xml:space="preserve" id="svg2" width="808.42" height="538.94678" fill-rule="evenodd" version="1.1">
  <defs id="defs4">
    <style id="style6" type="text/css">
      .fil1{fill:#fff}
    </style>
  </defs>
  <g id="Layer_x0020_1" transform="scale(.59883)">
    <path id="polygon10" fill="#bf0a30" d="M.0011811 899.999V0H1710v899.999z" transform="translate(-.0011811)"/>
    <path id="polygon12" fill="#fff" d="M-.56811 830.769v-69.231H1709.43v69.231z" class="fil1" transform="translate(.56811063)"/>
    <path id="polygon14" fill="#fff" d="M-.56811 138.462V69.2315H1709.43v69.2305z" class="fil1" transform="translate(.56811063)"/>
    <path id="polygon16" fill="#fff" d="M-.56811 276.924v-69.232H1709.43v69.232z" class="fil1" transform="translate(.56811063)"/>
    <path id="polygon18" fill="#fff" d="M-.56811 415.384v-69.23H1709.43v69.23z" class="fil1" transform="translate(.56811063)"/>
    <path id="polygon20" fill="#fff" d="M-.56811 553.846v-69.23H1709.43v69.23z" class="fil1" transform="translate(.56811063)"/>
    <path id="polygon22" fill="#fff" d="M-.56811 692.308v-69.232H1709.43v69.232z" class="fil1" transform="translate(.56811063)"/>
    <path id="polygon24" fill="#002868" d="M684.058 484.616V.0011811H.284646V484.616z"/>
    <g id="_293567608">
      <path id="_298821584" fill="#fff" d="M581.744 143.682 565.345 155.6l6.262-19.284-16.397-11.912h20.268l6.266-19.28 6.264 19.28h20.27l-16.399 11.912 6.262 19.284z" class="fil1"/>
      <path id="_297323656" fill="#fff" d="M501.886 143.682 485.487 155.6l6.264-19.284-16.4-11.912h20.27l6.265-19.28 6.264 19.28h20.27l-16.398 11.912 6.262 19.284z" class="fil1"/>
      <path id="_295834304" fill="#fff" d="M422.028 143.682 405.631 155.6l6.262-19.284-16.399-11.912h20.271l6.263-19.28 6.265 19.28h20.27l-16.398 11.912 6.263 19.284z" class="fil1"/>
      <path id="_297399080" fill="#fff" d="M342.171 143.682 325.773 155.6l6.262-19.284-16.397-11.912h20.269l6.264-19.28 6.265 19.28h20.269l-16.398 11.912 6.263 19.284z" class="fil1"/>
      <path id="_295835264" fill="#fff" d="m262.315 143.682-16.4 11.918 6.262-19.284-16.397-11.912h20.27l6.265-19.28 6.263 19.28h20.27l-16.398 11.912 6.262 19.284z" class="fil1"/>
      <path id="_295835336" fill="#fff" d="m182.458 143.682-16.4 11.918 6.262-19.284-16.398-11.912h20.27l6.266-19.28 6.263 19.28h20.27l-16.399 11.912 6.263 19.284z" class="fil1"/>
      <path id="_295835408" fill="#fff" d="M102.599 143.682 86.2016 155.6l6.2622-19.284-16.3996-11.912h20.2701l6.2647-19.28 6.266 19.28h20.267l-16.397 11.912 6.262 19.284z" class="fil1"/>
      <path id="_295835480" fill="#fff" d="m581.744 292.945-16.399 11.918 6.262-19.284-16.397-11.914h20.268l6.266-19.278 6.264 19.278h20.27l-16.399 11.914 6.262 19.284z" class="fil1"/>
      <path id="_299940712" fill="#fff" d="m501.886 292.945-16.399 11.918 6.264-19.284-16.4-11.914h20.27l6.265-19.278 6.264 19.278h20.27l-16.398 11.914 6.262 19.284z" class="fil1"/>
      <path id="_293566360" fill="#fff" d="m422.028 292.945-16.397 11.918 6.262-19.284-16.399-11.914h20.271l6.263-19.278 6.265 19.278h20.27l-16.398 11.914 6.263 19.284z" class="fil1"/>
      <path id="_293564440" fill="#fff" d="m342.171 292.945-16.398 11.918 6.262-19.284-16.397-11.914h20.269l6.264-19.278 6.265 19.278h20.269l-16.398 11.914 6.263 19.284z" class="fil1"/>
      <path id="_295315608" fill="#fff" d="m262.315 292.945-16.4 11.918 6.262-19.284-16.397-11.914h20.27l6.265-19.278 6.263 19.278h20.27l-16.398 11.914 6.262 19.284z" class="fil1"/>
      <path id="_253428728" fill="#fff" d="m182.458 292.945-16.4 11.918 6.262-19.284-16.398-11.914h20.27l6.266-19.278 6.263 19.278h20.27l-16.399 11.914 6.263 19.284z" class="fil1"/>
      <path id="_253570160" fill="#fff" d="m102.599 292.945-16.3974 11.918 6.2622-19.284-16.3996-11.914h20.2701l6.2647-19.278 6.266 19.278h20.267l-16.397 11.914 6.262 19.284z" class="fil1"/>
      <path id="_253570232" fill="#fff" d="m571.465 442.205-16.398 11.917 6.26-19.283-16.397-11.913h20.27l6.265-19.278 6.263 19.278h20.27l-16.397 11.913 6.262 19.283z" class="fil1"/>
      <path id="_253570304" fill="#fff" d="m491.608 442.205-16.4 11.917 6.262-19.283-16.397-11.913h20.27l6.265-19.278 6.263 19.278h20.27l-16.398 11.913 6.262 19.283z" class="fil1"/>
      <path id="_253570376" fill="#fff" d="m411.75 442.205-16.398 11.917 6.262-19.283-16.397-11.913h20.267l6.266-19.278 6.265 19.278h20.27l-16.4 11.913 6.262 19.283z" class="fil1"/>
      <path id="_253570448" fill="#fff" d="m331.892 442.205-16.397 11.917 6.262-19.283-16.4-11.913h20.271l6.264-19.278 6.266 19.278h20.27l-16.4 11.913 6.263 19.283z" class="fil1"/>
      <path id="_295827392" fill="#fff" d="m252.034 442.205-16.397 11.917 6.262-19.283-16.398-11.913h20.27l6.263-19.278 6.265 19.278h20.27l-16.397 11.913 6.262 19.283z" class="fil1"/>
      <path id="_295834376" fill="#fff" d="m172.178 442.205-16.399 11.917 6.262-19.283-16.397-11.913h20.27l6.264-19.278 6.264 19.278h20.27l-16.397 11.913 6.262 19.283z" class="fil1"/>
      <path id="_295834232" fill="#fff" d="m92.3209 442.205-16.3996 11.917 6.2633-19.283-16.3984-11.913h20.2701l6.2646-19.278 6.2634 19.278h20.2697l-16.398 11.913 6.262 19.283z" class="fil1"/>
      <path id="_295834160" fill="#fff" d="m621.672 69.052-16.397 11.9173 6.262-19.2815-16.4-11.915h20.27l6.265-19.2779 6.263 19.2779h20.271l-16.398 11.915 6.262 19.2815z" class="fil1"/>
      <path id="_295834088" fill="#fff" d="m541.814 69.052-16.398 11.9173 6.262-19.2815-16.397-11.915h20.27l6.263-19.2779 6.265 19.2779h20.27l-16.397 11.915 6.262 19.2815z" class="fil1"/>
      <path id="_295834016" fill="#fff" d="m461.957 69.052-16.398 11.9173 6.262-19.2815-16.397-11.915h20.27l6.263-19.2779 6.265 19.2779h20.27l-16.399 11.915 6.262 19.2815z" class="fil1"/>
      <path id="_295826792" fill="#fff" d="m382.101 69.052-16.4 11.9173 6.262-19.2815-16.398-11.915h20.27l6.266-19.2779 6.263 19.2779h20.27l-16.398 11.915 6.262 19.2815z" class="fil1"/>
      <path id="_295826000" fill="#fff" d="m302.242 69.052-16.398 11.9173 6.263-19.2815-16.399-11.915h20.27l6.264-19.2779 6.265 19.2779h20.271l-16.399 11.915 6.262 19.2815z" class="fil1"/>
      <path id="_295823384" fill="#fff" d="m222.385 69.052-16.397 11.9173 6.262-19.2815-16.4-11.915h20.27l6.265-19.2779 6.263 19.2779h20.271l-16.398 11.915 6.262 19.2815z" class="fil1"/>
      <path id="_295823312" fill="#fff" d="m142.528 69.052-16.399 11.9173 6.262-19.2815-16.397-11.915h20.27l6.264-19.2779 6.264 19.2779h20.27l-16.397 11.915 6.262 19.2815z" class="fil1"/>
      <path id="_295823240" fill="#fff" d="M62.6705 69.052 46.272 80.9693l6.2623-19.2815-16.3973-11.915h20.2701l6.2634-19.2779 6.2645 19.2779h20.2701l-16.3996 11.915 6.2622 19.2815z" class="fil1"/>
      <path id="_295823168" fill="#fff" d="m621.672 367.577-16.397 11.917 6.262-19.283-16.4-11.915h20.27l6.265-19.277 6.263 19.277h20.271l-16.398 11.915 6.262 19.283z" class="fil1"/>
      <path id="_295823096" fill="#fff" d="m541.814 367.577-16.398 11.917 6.262-19.283-16.397-11.915h20.27l6.263-19.277 6.265 19.277h20.27l-16.397 11.915 6.262 19.283z" class="fil1"/>
      <path id="_295823024" fill="#fff" d="m461.957 367.577-16.398 11.917 6.262-19.283-16.397-11.915h20.27l6.263-19.277 6.265 19.277h20.27l-16.399 11.915 6.262 19.283z" class="fil1"/>
      <path id="_295822952" fill="#fff" d="m382.101 367.577-16.4 11.917 6.262-19.283-16.398-11.915h20.27l6.266-19.277 6.263 19.277h20.27l-16.398 11.915 6.262 19.283z" class="fil1"/>
      <path id="_295822880" fill="#fff" d="m302.242 367.577-16.398 11.917 6.263-19.283-16.399-11.915h20.27l6.264-19.277 6.265 19.277h20.271l-16.399 11.915 6.262 19.283z" class="fil1"/>
      <path id="_295822808" fill="#fff" d="m222.385 367.577-16.397 11.917 6.262-19.283-16.4-11.915h20.27l6.265-19.277 6.263 19.277h20.271l-16.398 11.915 6.262 19.283z" class="fil1"/>
      <path id="_295822760" fill="#fff" d="m142.528 367.577-16.399 11.917 6.262-19.283-16.397-11.915h20.27l6.264-19.277 6.264 19.277h20.27l-16.397 11.915 6.262 19.283z" class="fil1"/>
      <path id="_295822616" fill="#fff" d="M62.6705 367.577 46.272 379.494l6.2623-19.283-16.3973-11.915h20.2701l6.2634-19.277 6.2645 19.277h20.2701l-16.3996 11.915 6.2622 19.283z" class="fil1"/>
      <path id="_295822016" fill="#fff" d="m621.672 218.313-16.397 11.917 6.262-19.284-16.4-11.914h20.27l6.265-19.278 6.263 19.278h20.271l-16.398 11.914 6.262 19.284z" class="fil1"/>
      <path id="_295821416" fill="#fff" d="m541.814 218.313-16.398 11.917 6.262-19.284-16.397-11.914h20.27l6.263-19.278 6.265 19.278h20.27l-16.397 11.914 6.262 19.284z" class="fil1"/>
      <path id="_295821296" fill="#fff" d="m461.957 218.313-16.398 11.917 6.262-19.284-16.397-11.914h20.27l6.263-19.278 6.265 19.278h20.27l-16.399 11.914 6.262 19.284z" class="fil1"/>
      <path id="_295821248" fill="#fff" d="m382.101 218.313-16.4 11.917 6.262-19.284-16.398-11.914h20.27l6.266-19.278 6.263 19.278h20.27l-16.398 11.914 6.262 19.284z" class="fil1"/>
      <path id="_295820336" fill="#fff" d="m302.242 218.313-16.398 11.917 6.263-19.284-16.399-11.914h20.27l6.264-19.278 6.265 19.278h20.271l-16.399 11.914 6.262 19.284z" class="fil1"/>
      <path id="_293568184" fill="#fff" d="m222.385 218.313-16.397 11.917 6.262-19.284-16.4-11.914h20.27l6.265-19.278 6.263 19.278h20.271l-16.398 11.914 6.262 19.284z" class="fil1"/>
      <path id="_293567752" fill="#fff" d="m142.528 218.313-16.399 11.917 6.262-19.284-16.397-11.914h20.27l6.264-19.278 6.264 19.278h20.27l-16.397 11.914 6.262 19.284z" class="fil1"/>
      <path id="_293567680" fill="#fff" d="M62.6705 218.313 46.272 230.23l6.2623-19.284-16.3973-11.914h20.2701l6.2634-19.278 6.2645 19.278h20.2701l-16.3996 11.914 6.2622 19.284z" class="fil1"/>
    </g>
  </g>
</svg>